<svg xmlns="http://www.w3.org/2000/svg" viewBox="0 0 234 60" enable-background="new 0 0 234 60"><g fill="#0065A4"><path d="M134.6 32.9h-1c-.3-4.4-3.6-8.2-7.3-8.2-6.4 0-7.1 7.2-7.1 12.1 0 4.5.4 12.1 6.9 12.1 3.9 0 7.3-3.9 7.7-8.2h1v7.2c-2.4 1.1-6 2.1-8.8 2.1-7.5 0-12.2-5.5-12.2-13.2 0-7.7 4.8-13.1 12.2-13.1 2.9 0 5.6.8 8.7 2.1v7.1zM141.4 39.9v1.5c0 3.2.5 7 4.2 7 2.7 0 4.5-1.7 5.5-4.3l.9.4c-1.3 3.6-3.9 5.3-7.3 5.3-5.1 0-8.5-3.6-8.5-9.2 0-5.3 3.5-9.2 8.5-9.2 4.2 0 7.6 3 7.6 8.3h-10.9zm5.9-1.1v-1.6c0-2-.5-4.5-2.7-4.5-3 0-3.1 3.8-3.2 6.1h5.9zM168.7 48.4V24h-7v1.1h2.3v23.3h-4.6V24h-7v1.1h2.3v23.3h-2.3v1.1h18.7v-1.1zM200.4 49.5v-1.1h-2.3V24h-7v1.1h2.3v23.3h-4.5V32h-7v1.1h2.3v9.4c0 3.8-1.5 5.7-3.6 5.7-1.3 0-2.5-.4-2.5-3.1V32h-7v1.1h2.3V44c0 4.6 2.3 5.9 5.6 5.9 2 0 4.1-1 5.2-2.9h.1v2.5h16.1zM227.3 49.5v-1.1H225v-7.5c0-2.8.8-7.6 2.6-7.6.5 0 .6.3.6.7 0 .5-.1.6-.1 1.7 0 1.2.7 1.9 2 1.9 1.5 0 2.1-.9 2.1-2.4 0-2-1.1-3.6-3.1-3.6-1.8 0-3.5 1.3-4.1 3.1V32h-7v1.1h2.3v15.3H218c-2 0-2.3-.7-2.3-3V37c0-4.8-3.3-5.4-7.6-5.4-2.3 0-6.2.8-6.2 3.9 0 1.5.8 1.9 1.8 1.9 3.7 0 0-4.7 4.5-4.7 2.4 0 2.9 1.2 2.9 2.8v2.2c-.8.4-2.5.9-3.3 1.1-4 .9-7 1.2-7 5.5 0 3.5 1.7 5.7 5 5.7 2.1 0 4.6-.5 5.3-2.8h.1c.3 2.1 1.3 2.4 3.3 2.4h12.8zM211 41.9c0 2.1 0 6.4-3.1 6.4-1.8 0-2.4-1.6-2.4-3.4 0-3.2 1-4.2 2.7-4.9l2.8-1.1v3z"/></g><g fill="#EE3040"><path d="M60.2 24H72v1.1h-3.6v18.1c0 4.1 3.3 5.1 5.8 4.9 2-.2 5.8-.8 5.8-5.6V25.1h-3.4V24h8.6v1.1H82v17.1c0 6.1-4 7.6-8.9 7.7-6.2.1-9.8-1.2-9.8-7V25.1h-3.1V24zM88.2 40.9h1.1c.2 3.6 2.8 7.7 7 7.7 2.6 0 5-1.1 5-4.2 0-6.3-12.9-4.2-12.9-13.2 0-5.4 4.1-7.7 7.6-7.7 1.9 0 3.8.4 6.7 1.6v6.1h-1c-.6-3.5-3-6.4-6.3-6.4-2.1 0-3.7 1.6-3.7 3.9 0 5.6 12.6 3.5 12.6 13.4 0 4.6-3.7 7.8-8.5 7.8-2.6 0-5.3-.5-7.9-1.7v-7.3z"/><circle cx="106.7" cy="48" r="1.9"/><circle cx="84.5" cy="48" r="1.9"/></g><path fill="#0065A4" d="M47.5 21.8c-5.8-1.2-13.6-1.9-20.2-1.8 2.6-4.9 6.1-9.7 9.4-12.7l-.9-.7s-8.4 5.1-14.5 18.8l2.8.9c.6-1.5 1.5-2.9 2.2-4.4 5.9-.1 14.3.5 21.6 1.9-8 1.4-22.5 5.1-31 23.5 0 0 1.5-9.1 5.6-17.2.9.3 2.7 1.1 2.7 1.1l2.2-1.9c-5.7-2.8-12.2-4.4-19.1-5.3 0 0 4.6-1.4 12.8-2l1.2-2c-13 .5-22.9 4.2-21 4.8 2.2.6 8.7 1 17.9 4.1-5.7 12.5-6.7 27-4.6 28.2 2.1 1.2 6.9-15.3 16.5-22.9 0 0 8.5 4.2 15.4 11.1.3-.3.6-.5 1-.7-3.8-5-9.1-9.7-14-12.1 3.6-2.5 10.3-5.1 16.8-6.5 2.5-.3 8.2-2-2.8-4.2z"/><circle fill="#EE3040" cx="49.1" cy="48" r="1.9"/><circle fill="#EE3040" cx="38.9" cy="4.4" r="1.9"/><path fill-rule="evenodd" clip-rule="evenodd" fill="#0065A4" d="M228.2 48.3c0 .8.6 1.5 1.4 1.5.8 0 1.4-.7 1.4-1.5s-.6-1.5-1.4-1.5c-.8 0-1.4.6-1.4 1.5zm.3 0c0-.7.5-1.2 1.1-1.2.6 0 1.1.5 1.1 1.2s-.4 1.2-1.1 1.2c-.6 0-1.1-.5-1.1-1.2zm.5.8h.7V49c-.2 0-.2 0-.2-.2v-.4h.1c.2.3.3.7.4.7h.4V49c-.1 0-.2-.2-.2-.3l-.2-.4c.2-.1.3-.2.3-.4 0-.3-.2-.4-.4-.4h-.9v.1c.2 0 .2 0 .2.2v1.1l-.2.2zm.5-1.5h.1c.1 0 .2.1.2.3 0 .2 0 .4-.2.4h-.1v-.7z"/></svg>